<svg width="100" height="100" viewBox="0 0 100 100" fill="none" xmlns="http://www.w3.org/2000/svg">
<g clip-path="url(#clip0_24_52)">
<path d="M79.1667 4.16669H20.8333C15.31 4.1733 10.0148 6.37036 6.10925 10.2759C2.20367 14.1815 0.00661607 19.4767 0 25L0 75C0.00661607 80.5233 2.20367 85.8185 6.10925 89.7241C10.0148 93.6297 15.31 95.8267 20.8333 95.8334H79.1667C84.69 95.8267 89.9852 93.6297 93.8907 89.7241C97.7963 85.8185 99.9934 80.5233 100 75V25C99.9934 19.4767 97.7963 14.1815 93.8907 10.2759C89.9852 6.37036 84.69 4.1733 79.1667 4.16669ZM20.8333 12.5H79.1667C81.6616 12.5049 84.098 13.2563 86.1623 14.6575C88.2266 16.0587 89.8244 18.0456 90.75 20.3625L58.8417 52.275C56.4935 54.6138 53.3142 55.927 50 55.927C46.6858 55.927 43.5065 54.6138 41.1583 52.275L9.25 20.3625C10.1756 18.0456 11.7734 16.0587 13.8377 14.6575C15.902 13.2563 18.3384 12.5049 20.8333 12.5ZM79.1667 87.5H20.8333C17.5181 87.5 14.3387 86.1831 11.9945 83.8389C9.65029 81.4947 8.33333 78.3152 8.33333 75V31.25L35.2667 58.1667C39.1776 62.0678 44.4761 64.2585 50 64.2585C55.5239 64.2585 60.8224 62.0678 64.7333 58.1667L91.6667 31.25V75C91.6667 78.3152 90.3497 81.4947 88.0055 83.8389C85.6613 86.1831 82.4819 87.5 79.1667 87.5Z" fill="#226366"/>
</g>
<defs>
<clipPath id="clip0_24_52">
<rect width="100" height="100" fill="white"/>
</clipPath>
</defs>
</svg>
