<svg width="100" height="100" viewBox="0 0 100 100" fill="none" xmlns="http://www.w3.org/2000/svg">
<g clip-path="url(#clip0_24_47)">
<path d="M50 9.00833C63.35 9.00833 64.9333 9.05833 70.2042 9.3C75.6542 9.55 81.2667 10.7917 85.2375 14.7625C89.2458 18.7708 90.45 24.3292 90.7 29.7958C90.9417 35.0667 90.9917 36.65 90.9917 50C90.9917 63.35 90.9417 64.9333 90.7 70.2042C90.4542 75.625 89.1833 81.2917 85.2375 85.2375C81.2292 89.2458 75.675 90.45 70.2042 90.7C64.9333 90.9417 63.35 90.9917 50 90.9917C36.65 90.9917 35.0667 90.9417 29.7958 90.7C24.4167 90.4542 18.675 89.1542 14.7625 85.2375C10.775 81.25 9.55 75.6375 9.3 70.2042C9.05833 64.9333 9.00833 63.35 9.00833 50C9.00833 36.65 9.05833 35.0667 9.3 29.7958C9.54583 24.3958 10.8292 18.6958 14.7625 14.7625C18.7625 10.7625 24.3417 9.55 29.7958 9.3C35.0667 9.05833 36.65 9.00833 50 9.00833ZM50 0C36.4208 0 34.7167 0.0583333 29.3833 0.3C21.6542 0.654167 13.9792 2.80417 8.39167 8.39167C2.78333 14 0.654167 21.6583 0.3 29.3833C0.0583333 34.7167 0 36.4208 0 50C0 63.5792 0.0583333 65.2833 0.3 70.6167C0.654167 78.3375 2.8125 86.0333 8.39167 91.6083C13.9958 97.2125 21.6667 99.3458 29.3833 99.7C34.7167 99.9417 36.4208 100 50 100C63.5792 100 65.2833 99.9417 70.6167 99.7C78.3417 99.3458 86.025 97.1917 91.6083 91.6083C97.2208 85.9958 99.3458 78.3417 99.7 70.6167C99.9417 65.2833 100 63.5792 100 50C100 36.4208 99.9417 34.7167 99.7 29.3833C99.3458 21.6542 97.1917 13.975 91.6083 8.39167C86.0125 2.79583 78.3208 0.65 70.6167 0.3C65.2833 0.0583333 63.5792 0 50 0Z" fill="#226366"/>
<path d="M50 24.325C35.8208 24.325 24.325 35.8208 24.325 50C24.325 64.1792 35.8208 75.675 50 75.675C64.1792 75.675 75.675 64.1792 75.675 50C75.675 35.8208 64.1792 24.325 50 24.325ZM50 66.6667C40.7958 66.6667 33.3333 59.2042 33.3333 50C33.3333 40.7958 40.7958 33.3333 50 33.3333C59.2042 33.3333 66.6667 40.7958 66.6667 50C66.6667 59.2042 59.2042 66.6667 50 66.6667Z" fill="#226366"/>
<path d="M76.6917 29.3084C80.0054 29.3084 82.6917 26.6221 82.6917 23.3084C82.6917 19.9946 80.0054 17.3083 76.6917 17.3083C73.378 17.3083 70.6917 19.9946 70.6917 23.3084C70.6917 26.6221 73.378 29.3084 76.6917 29.3084Z" fill="#226366"/>
</g>
<defs>
<clipPath id="clip0_24_47">
<rect width="100" height="100" fill="white"/>
</clipPath>
</defs>
</svg>
