<svg width="100" height="100" viewBox="0 0 100 100" fill="none" xmlns="http://www.w3.org/2000/svg">
<g clip-path="url(#clip0_24_54)">
<path d="M54.1667 4.16667C54.1667 3.0616 54.6056 2.00179 55.3871 1.22039C56.1685 0.438988 57.2283 1.19954e-06 58.3333 1.19954e-06C69.3803 0.0121329 79.9713 4.4059 87.7827 12.2173C95.5941 20.0287 99.9879 30.6197 100 41.6667C100 42.7717 99.561 43.8315 98.7796 44.6129C97.9982 45.3943 96.9384 45.8333 95.8333 45.8333C94.7283 45.8333 93.6684 45.3943 92.887 44.6129C92.1056 43.8315 91.6667 42.7717 91.6667 41.6667C91.6567 32.8292 88.1416 24.3565 81.8926 18.1074C75.6435 11.8583 67.1708 8.34326 58.3333 8.33333C57.2283 8.33333 56.1685 7.89435 55.3871 7.11295C54.6056 6.33154 54.1667 5.27174 54.1667 4.16667ZM58.3333 25C62.7536 25 66.9928 26.7559 70.1184 29.8816C73.244 33.0072 75 37.2464 75 41.6667C75 42.7717 75.439 43.8315 76.2204 44.6129C77.0018 45.3943 78.0616 45.8333 79.1667 45.8333C80.2717 45.8333 81.3315 45.3943 82.1129 44.6129C82.8943 43.8315 83.3333 42.7717 83.3333 41.6667C83.3267 35.0383 80.6907 28.6833 76.0037 23.9963C71.3167 19.3093 64.9617 16.6733 58.3333 16.6667C57.2283 16.6667 56.1685 17.1057 55.3871 17.8871C54.6056 18.6685 54.1667 19.7283 54.1667 20.8333C54.1667 21.9384 54.6056 22.9982 55.3871 23.7796C56.1685 24.561 57.2283 25 58.3333 25ZM96.2208 69.7458C98.6355 72.1671 99.9914 75.4471 99.9914 78.8667C99.9914 82.2862 98.6355 85.5662 96.2208 87.9875L92.4292 92.3583C58.3042 125.029 -24.7375 42.0083 7.42916 7.775L12.2208 3.60833C14.6449 1.26116 17.8955 -0.0372943 21.2696 -0.00610363C24.6436 0.0250871 27.8698 1.38341 30.25 3.775C30.3792 3.90417 38.1 13.9333 38.1 13.9333C40.3909 16.3401 41.6663 19.5372 41.6608 22.86C41.6554 26.1828 40.3696 29.3757 38.0708 31.775L33.2458 37.8417C35.916 44.3296 39.8419 50.226 44.7979 55.1921C49.754 60.1581 55.6424 64.0959 62.125 66.7792L68.2292 61.925C70.6288 59.628 73.8211 58.3437 77.1429 58.3391C80.4647 58.3344 83.6606 59.6097 86.0667 61.9C86.0667 61.9 96.0917 69.6167 96.2208 69.7458ZM90.4875 75.8042C90.4875 75.8042 80.5167 68.1333 80.3875 68.0042C79.5291 67.153 78.3692 66.6755 77.1604 66.6755C75.9516 66.6755 74.7917 67.153 73.9333 68.0042C73.8208 68.1208 65.4167 74.8167 65.4167 74.8167C64.8503 75.2675 64.1763 75.5629 63.461 75.674C62.7457 75.785 62.0139 75.7078 61.3375 75.45C52.9394 72.3232 45.3114 67.4281 38.9701 61.0962C32.6289 54.7642 27.7225 47.1435 24.5833 38.75C24.305 38.0644 24.2142 37.317 24.3204 36.5847C24.4266 35.8525 24.7259 35.1616 25.1875 34.5833C25.1875 34.5833 31.8833 26.175 31.9958 26.0667C32.8469 25.2083 33.3245 24.0484 33.3245 22.8396C33.3245 21.6308 32.8469 20.4709 31.9958 19.6125C31.8667 19.4875 24.1958 9.50833 24.1958 9.50833C23.3246 8.72711 22.1875 8.30873 21.0177 8.33895C19.8479 8.36916 18.7339 8.84568 17.9042 9.67083L13.1125 13.8375C-10.3958 42.1042 61.5667 110.075 86.3375 86.6667L90.1333 82.2917C91.0228 81.4678 91.5571 80.3302 91.6232 79.1196C91.6893 77.9089 91.282 76.72 90.4875 75.8042Z" fill="#226366"/>
</g>
<defs>
<clipPath id="clip0_24_54">
<rect width="100" height="100" fill="white"/>
</clipPath>
</defs>
</svg>
