<svg width="32" height="26" viewBox="0 0 32 26" fill="none" xmlns="http://www.w3.org/2000/svg">
<path d="M16 2.34217C20.272 2.34217 20.7787 2.35517 22.4653 2.418C24.2093 2.483 26.0053 2.80583 27.276 3.83825C28.5587 4.88042 28.944 6.32558 29.024 7.74692C29.1013 9.11733 29.1173 9.529 29.1173 13C29.1173 16.471 29.1013 16.8827 29.024 18.2531C28.9453 19.6625 28.5387 21.1358 27.276 22.1618C25.9933 23.2039 24.216 23.517 22.4653 23.582C20.7787 23.6448 20.272 23.6578 16 23.6578C11.728 23.6578 11.2213 23.6448 9.53467 23.582C7.81333 23.5181 5.976 23.1801 4.724 22.1618C3.448 21.125 3.056 19.6658 2.976 18.2531C2.89867 16.8827 2.88267 16.471 2.88267 13C2.88267 9.529 2.89867 9.11733 2.976 7.74692C3.05467 6.34292 3.46533 4.86092 4.724 3.83825C6.004 2.79825 7.78933 2.483 9.53467 2.418C11.2213 2.35517 11.728 2.34217 16 2.34217ZM16 0C11.6547 0 11.1093 0.0151667 9.40267 0.078C6.92933 0.170083 4.47333 0.729083 2.68533 2.18183C0.890667 3.64 0.209333 5.63117 0.096 7.63967C0.0186667 9.02633 0 9.46942 0 13C0 16.5306 0.0186667 16.9737 0.096 18.3603C0.209333 20.3678 0.9 22.3687 2.68533 23.8182C4.47867 25.2753 6.93333 25.8299 9.40267 25.922C11.1093 25.9848 11.6547 26 16 26C20.3453 26 20.8907 25.9848 22.5973 25.922C25.0693 25.8299 27.528 25.2698 29.3147 23.8182C31.1107 22.3589 31.7907 20.3688 31.904 18.3603C31.9813 16.9737 32 16.5306 32 13C32 9.46942 31.9813 9.02633 31.904 7.63967C31.7907 5.63008 31.1013 3.6335 29.3147 2.18183C27.524 0.726917 25.0627 0.169 22.5973 0.078C20.8907 0.0151667 20.3453 0 16 0Z" fill="#D6D1D5"/>
<path d="M16 6.32452C11.4627 6.32452 7.784 9.31344 7.784 13C7.784 16.6866 11.4627 19.6755 16 19.6755C20.5373 19.6755 24.216 16.6866 24.216 13C24.216 9.31344 20.5373 6.32452 16 6.32452ZM16 17.3334C13.0547 17.3334 10.6667 15.3931 10.6667 13C10.6667 10.6069 13.0547 8.66669 16 8.66669C18.9453 8.66669 21.3333 10.6069 21.3333 13C21.3333 15.3931 18.9453 17.3334 16 17.3334Z" fill="#D6D1D5"/>
<path d="M24.5413 7.62018C25.6017 7.62018 26.4613 6.92175 26.4613 6.06018C26.4613 5.19862 25.6017 4.50018 24.5413 4.50018C23.481 4.50018 22.6213 5.19862 22.6213 6.06018C22.6213 6.92175 23.481 7.62018 24.5413 7.62018Z" fill="#D6D1D5"/>
</svg>
