<svg width="110" height="108" viewBox="0 0 110 108" fill="none" xmlns="http://www.w3.org/2000/svg">
<g clip-path="url(#clip0_24_39)">
<path fill-rule="evenodd" clip-rule="evenodd" d="M85.6956 14.5333C76.2922 5.16667 63.7906 0.00416667 50.4727 0C23.0287 0 0.692479 22.225 0.679919 49.55C0.675732 58.2833 2.97006 66.8083 7.32844 74.325L0.261246 100L26.6544 93.1083C33.9267 97.0583 42.116 99.1375 50.4475 99.1417H50.4685C77.9083 99.1417 100.249 76.9125 100.261 49.5875C100.27 36.35 95.0948 23.8958 85.6956 14.5333ZM50.4727 90.7708H50.4559C43.0287 90.7708 35.7479 88.7833 29.3925 85.0292L27.8811 84.1375L12.2185 88.225L16.4011 73.025L15.4172 71.4667C11.2723 64.9083 9.08687 57.3292 9.09105 49.55C9.09943 26.8417 27.6676 8.36667 50.4936 8.36667C61.5466 8.36667 71.938 12.6583 79.7505 20.4417C87.5629 28.2292 91.8627 38.575 91.8585 49.5792C91.8459 72.2958 73.282 90.7708 50.4727 90.7708ZM73.1731 59.925C71.9296 59.3042 65.8128 56.3083 64.6699 55.8958C63.5311 55.4833 62.7021 55.275 61.8689 56.5125C61.0358 57.75 58.6577 60.5417 57.9292 61.3708C57.2049 62.1958 56.4764 62.3 55.233 61.6792C53.9895 61.0583 49.9786 59.7542 45.2267 55.5333C41.5298 52.25 39.0303 48.1958 38.306 46.9542C37.5817 45.7125 38.2307 45.0458 38.8503 44.4292C39.4113 43.875 40.0938 42.9833 40.7176 42.2583C41.3456 41.5417 41.5508 41.025 41.9694 40.1958C42.3839 39.3708 42.1788 38.6458 41.8648 38.025C41.5508 37.4083 39.0638 31.3125 38.0297 28.8333C37.0207 26.4167 35.995 26.7458 35.2288 26.7083C34.5045 26.6708 33.6755 26.6667 32.8424 26.6667C32.0134 26.6667 30.6653 26.975 29.5265 28.2167C28.3877 29.4583 25.1723 32.4542 25.1723 38.5458C25.1723 44.6417 29.6311 50.5292 30.2508 51.3542C30.8704 52.1792 39.022 64.6875 51.5026 70.05C54.471 71.325 56.7904 72.0875 58.5949 72.6583C61.5759 73.6 64.2889 73.4667 66.4325 73.15C68.8231 72.7958 73.7927 70.1542 74.8311 67.2625C75.8694 64.3708 75.8694 61.8875 75.5554 61.375C75.2455 60.8542 74.4166 60.5458 73.1731 59.925Z" fill="#226366"/>
</g>
<defs>
<clipPath id="clip0_24_39">
<rect width="110" height="108" fill="white"/>
</clipPath>
</defs>
</svg>
